<svg width="31" height="31" viewBox="0 0 31 31" fill="none" xmlns="http://www.w3.org/2000/svg">
<mask id="mask0_5_4351" style="mask-type:luminance" maskUnits="userSpaceOnUse" x="0" y="0" width="31" height="31">
<path d="M4.24573 0.236172H4.17932C2.66077 0.236172 1.8988 0.23617 1.49762 0.248735C1.07041 0.258608 0.732958 0.26579 0.420631 0.576321L0.264469 0.732484L0.0975342 1.18123V1.84627L7.0827 8.83233L11.0137 8.8422C12.4156 8.84669 12.5341 6.7331 11.1349 6.63258C11.0918 6.62899 11.0478 6.6272 11.0029 6.6272H7.99634L3.80955 2.44131C9.41797 2.42964 20.3952 2.45387 25.7146 2.45387C25.7882 2.45387 26.8499 2.48977 27.733 3.45457C28.0427 3.79292 28.5175 4.53874 28.5175 5.42905L28.4932 11.891C28.5309 13.1143 27.383 14.6472 25.8438 14.7791H23.4834C23.439 14.7788 23.396 14.7634 23.3615 14.7353C23.3271 14.7072 23.3033 14.6682 23.2941 14.6247C23.0158 13.3739 22.3221 12.2541 21.326 11.448C20.3298 10.6419 19.09 10.197 17.8086 10.1857H17.7404C14.7455 10.1857 12.1993 12.5964 12.0494 15.5895C12.0014 16.524 12.1845 17.456 12.5825 18.3029C12.9805 19.1497 13.5812 19.8854 14.3314 20.4448C15.0815 21.0041 15.958 21.3699 16.8833 21.5097C17.8085 21.6496 18.7539 21.5591 19.6359 21.2464L28.9016 30.5148C29.0344 30.6324 29.59 31.0587 30.2559 30.6387C30.4661 30.4963 30.6238 30.2888 30.7046 30.0481C30.8985 29.3301 30.5099 29.0052 30.1311 28.6274L20.5549 19.0503C20.4123 18.9062 20.2251 18.8147 20.0239 18.7905C19.8226 18.7664 19.6191 18.8111 19.4465 18.9174C19.4196 18.9336 19.3568 18.9677 19.3164 18.9892C18.9384 19.18 18.5292 19.3016 18.1084 19.3482C17.5217 19.4112 16.9287 19.3244 16.3847 19.0961C15.8406 18.8677 15.3633 18.5053 14.9974 18.0425C14.6314 17.5797 14.3887 17.0317 14.2919 16.4497C14.1951 15.8676 14.2474 15.2706 14.4439 14.7143C14.6404 14.1579 14.9746 13.6605 15.4155 13.2683C15.8563 12.8762 16.3894 12.6022 16.9648 12.4719C17.5402 12.3416 18.1393 12.3592 18.7061 12.5232C19.2729 12.6872 19.7888 12.9921 20.2058 13.4095C20.5299 13.73 20.7873 14.1115 20.9631 14.5321C21.1388 14.9527 21.2295 15.4039 21.2298 15.8597C21.2266 16.0132 21.2558 16.1657 21.3155 16.3072C21.3752 16.4487 21.464 16.576 21.5763 16.6809C21.7917 16.877 22.0738 16.9836 22.3652 16.9788H25.8411C28.3065 16.9788 30.7657 14.5556 30.7657 12.4151V5.25673C30.7657 1.88217 27.8192 0.452466 26.4514 0.285533C26.2418 0.256506 26.0302 0.244501 25.8187 0.249634C21.5179 0.244249 17.1193 0.23617 11.5558 0.234375H8.77626C7.04231 0.234375 5.49055 0.234375 4.25022 0.234375" fill="white"/>
</mask>
<g mask="url(#mask0_5_4351)">
<path d="M19.74 -14.5735L-14.7169 11.4011L11.2604 45.8616L45.7173 19.887L19.74 -14.5735Z" fill="white"/>
</g>
</svg>
